<mxfile host="app.diagrams.net" agent="Mozilla/5.0 (Windows NT 10.0; Win64; x64) AppleWebKit/537.36 (KHTML, like Gecko) Chrome/140.0.0.0 Safari/537.36" version="28.2.1">
  <diagram name="หน้า-1" id="PJAH6eqZAQPlWX_EOzK6">
    <mxGraphModel dx="1188" dy="619" grid="1" gridSize="10" guides="1" tooltips="1" connect="1" arrows="1" fold="1" page="1" pageScale="1" pageWidth="827" pageHeight="1169" math="0" shadow="0">
      <root>
        <mxCell id="0" />
        <mxCell id="1" parent="0" />
        <mxCell id="hrMOJknZQr7iWLwGJMWY-2" style="edgeStyle=orthogonalEdgeStyle;rounded=0;orthogonalLoop=1;jettySize=auto;html=1;exitX=0.5;exitY=1;exitDx=0;exitDy=0;" edge="1" parent="1" source="hrMOJknZQr7iWLwGJMWY-1">
          <mxGeometry relative="1" as="geometry">
            <mxPoint x="414" y="140" as="targetPoint" />
          </mxGeometry>
        </mxCell>
        <mxCell id="hrMOJknZQr7iWLwGJMWY-1" value="start" style="ellipse;whiteSpace=wrap;html=1;" vertex="1" parent="1">
          <mxGeometry x="354" y="30" width="120" height="80" as="geometry" />
        </mxCell>
        <mxCell id="hrMOJknZQr7iWLwGJMWY-4" style="edgeStyle=orthogonalEdgeStyle;rounded=0;orthogonalLoop=1;jettySize=auto;html=1;exitX=0.5;exitY=1;exitDx=0;exitDy=0;" edge="1" parent="1" source="hrMOJknZQr7iWLwGJMWY-3">
          <mxGeometry relative="1" as="geometry">
            <mxPoint x="414" y="230" as="targetPoint" />
          </mxGeometry>
        </mxCell>
        <mxCell id="hrMOJknZQr7iWLwGJMWY-3" value="isArmstrong" style="shape=process;whiteSpace=wrap;html=1;backgroundOutline=1;" vertex="1" parent="1">
          <mxGeometry x="354" y="140" width="120" height="60" as="geometry" />
        </mxCell>
        <mxCell id="hrMOJknZQr7iWLwGJMWY-6" style="edgeStyle=orthogonalEdgeStyle;rounded=0;orthogonalLoop=1;jettySize=auto;html=1;exitX=0.5;exitY=1;exitDx=0;exitDy=0;" edge="1" parent="1" source="hrMOJknZQr7iWLwGJMWY-5">
          <mxGeometry relative="1" as="geometry">
            <mxPoint x="414" y="320" as="targetPoint" />
          </mxGeometry>
        </mxCell>
        <mxCell id="hrMOJknZQr7iWLwGJMWY-5" value="รับค่าจากผู้ใช้" style="rounded=0;whiteSpace=wrap;html=1;" vertex="1" parent="1">
          <mxGeometry x="354" y="230" width="120" height="60" as="geometry" />
        </mxCell>
        <mxCell id="hrMOJknZQr7iWLwGJMWY-8" style="edgeStyle=orthogonalEdgeStyle;rounded=0;orthogonalLoop=1;jettySize=auto;html=1;exitX=0.5;exitY=1;exitDx=0;exitDy=0;" edge="1" parent="1" source="hrMOJknZQr7iWLwGJMWY-7">
          <mxGeometry relative="1" as="geometry">
            <mxPoint x="414" y="410" as="targetPoint" />
          </mxGeometry>
        </mxCell>
        <mxCell id="hrMOJknZQr7iWLwGJMWY-7" value="show&quot;Enter Number&quot;" style="shape=parallelogram;perimeter=parallelogramPerimeter;whiteSpace=wrap;html=1;fixedSize=1;" vertex="1" parent="1">
          <mxGeometry x="346" y="320" width="136" height="60" as="geometry" />
        </mxCell>
        <mxCell id="hrMOJknZQr7iWLwGJMWY-10" style="edgeStyle=orthogonalEdgeStyle;rounded=0;orthogonalLoop=1;jettySize=auto;html=1;exitX=0.5;exitY=1;exitDx=0;exitDy=0;" edge="1" parent="1" source="hrMOJknZQr7iWLwGJMWY-9">
          <mxGeometry relative="1" as="geometry">
            <mxPoint x="414" y="530" as="targetPoint" />
          </mxGeometry>
        </mxCell>
        <mxCell id="hrMOJknZQr7iWLwGJMWY-13" style="edgeStyle=orthogonalEdgeStyle;rounded=0;orthogonalLoop=1;jettySize=auto;html=1;exitX=1;exitY=0.5;exitDx=0;exitDy=0;entryX=0.558;entryY=-0.05;entryDx=0;entryDy=0;entryPerimeter=0;" edge="1" parent="1" source="hrMOJknZQr7iWLwGJMWY-9" target="hrMOJknZQr7iWLwGJMWY-14">
          <mxGeometry relative="1" as="geometry">
            <mxPoint x="580" y="450" as="targetPoint" />
          </mxGeometry>
        </mxCell>
        <mxCell id="hrMOJknZQr7iWLwGJMWY-9" value="isArmstronng?" style="rhombus;whiteSpace=wrap;html=1;" vertex="1" parent="1">
          <mxGeometry x="352" y="410" width="124" height="80" as="geometry" />
        </mxCell>
        <mxCell id="hrMOJknZQr7iWLwGJMWY-11" value="true" style="text;html=1;align=center;verticalAlign=middle;resizable=0;points=[];autosize=1;strokeColor=none;fillColor=none;" vertex="1" parent="1">
          <mxGeometry x="370" y="488" width="40" height="30" as="geometry" />
        </mxCell>
        <mxCell id="hrMOJknZQr7iWLwGJMWY-16" style="edgeStyle=orthogonalEdgeStyle;rounded=0;orthogonalLoop=1;jettySize=auto;html=1;exitX=0.5;exitY=1;exitDx=0;exitDy=0;" edge="1" parent="1" source="hrMOJknZQr7iWLwGJMWY-12">
          <mxGeometry relative="1" as="geometry">
            <mxPoint x="412" y="620" as="targetPoint" />
          </mxGeometry>
        </mxCell>
        <mxCell id="hrMOJknZQr7iWLwGJMWY-12" value="show&quot;Pass&quot;" style="shape=parallelogram;perimeter=parallelogramPerimeter;whiteSpace=wrap;html=1;fixedSize=1;" vertex="1" parent="1">
          <mxGeometry x="352" y="530" width="120" height="60" as="geometry" />
        </mxCell>
        <mxCell id="hrMOJknZQr7iWLwGJMWY-14" value="show&quot;Not Pass&quot;" style="shape=parallelogram;perimeter=parallelogramPerimeter;whiteSpace=wrap;html=1;fixedSize=1;" vertex="1" parent="1">
          <mxGeometry x="500" y="530" width="120" height="60" as="geometry" />
        </mxCell>
        <mxCell id="hrMOJknZQr7iWLwGJMWY-15" value="false" style="text;html=1;align=center;verticalAlign=middle;resizable=0;points=[];autosize=1;strokeColor=none;fillColor=none;" vertex="1" parent="1">
          <mxGeometry x="482" y="420" width="50" height="30" as="geometry" />
        </mxCell>
        <mxCell id="hrMOJknZQr7iWLwGJMWY-17" value="end" style="ellipse;whiteSpace=wrap;html=1;" vertex="1" parent="1">
          <mxGeometry x="354" y="620" width="120" height="80" as="geometry" />
        </mxCell>
        <mxCell id="hrMOJknZQr7iWLwGJMWY-20" value="d" style="swimlane;whiteSpace=wrap;html=1;" vertex="1" parent="1">
          <mxGeometry x="80" y="720" width="690" height="1450" as="geometry" />
        </mxCell>
        <mxCell id="hrMOJknZQr7iWLwGJMWY-24" style="edgeStyle=orthogonalEdgeStyle;rounded=0;orthogonalLoop=1;jettySize=auto;html=1;exitX=0.5;exitY=1;exitDx=0;exitDy=0;entryX=0.5;entryY=0;entryDx=0;entryDy=0;" edge="1" parent="hrMOJknZQr7iWLwGJMWY-20" source="hrMOJknZQr7iWLwGJMWY-21" target="hrMOJknZQr7iWLwGJMWY-22">
          <mxGeometry relative="1" as="geometry" />
        </mxCell>
        <mxCell id="hrMOJknZQr7iWLwGJMWY-21" value="start" style="ellipse;whiteSpace=wrap;html=1;" vertex="1" parent="hrMOJknZQr7iWLwGJMWY-20">
          <mxGeometry x="285" y="40" width="120" height="80" as="geometry" />
        </mxCell>
        <mxCell id="hrMOJknZQr7iWLwGJMWY-22" value="รับค่า num" style="rounded=0;whiteSpace=wrap;html=1;" vertex="1" parent="hrMOJknZQr7iWLwGJMWY-20">
          <mxGeometry x="285" y="150" width="120" height="60" as="geometry" />
        </mxCell>
        <mxCell id="hrMOJknZQr7iWLwGJMWY-27" style="edgeStyle=orthogonalEdgeStyle;rounded=0;orthogonalLoop=1;jettySize=auto;html=1;exitX=0.5;exitY=1;exitDx=0;exitDy=0;" edge="1" parent="hrMOJknZQr7iWLwGJMWY-20" source="hrMOJknZQr7iWLwGJMWY-26">
          <mxGeometry relative="1" as="geometry">
            <mxPoint x="345" y="330" as="targetPoint" />
          </mxGeometry>
        </mxCell>
        <mxCell id="hrMOJknZQr7iWLwGJMWY-26" value="t = num" style="rounded=0;whiteSpace=wrap;html=1;" vertex="1" parent="hrMOJknZQr7iWLwGJMWY-20">
          <mxGeometry x="285" y="240" width="120" height="60" as="geometry" />
        </mxCell>
        <mxCell id="hrMOJknZQr7iWLwGJMWY-25" style="edgeStyle=orthogonalEdgeStyle;rounded=0;orthogonalLoop=1;jettySize=auto;html=1;exitX=0.5;exitY=1;exitDx=0;exitDy=0;" edge="1" parent="hrMOJknZQr7iWLwGJMWY-20" source="hrMOJknZQr7iWLwGJMWY-22" target="hrMOJknZQr7iWLwGJMWY-26">
          <mxGeometry relative="1" as="geometry">
            <mxPoint x="345" y="240" as="targetPoint" />
          </mxGeometry>
        </mxCell>
        <mxCell id="hrMOJknZQr7iWLwGJMWY-29" style="edgeStyle=orthogonalEdgeStyle;rounded=0;orthogonalLoop=1;jettySize=auto;html=1;exitX=0.5;exitY=1;exitDx=0;exitDy=0;" edge="1" parent="hrMOJknZQr7iWLwGJMWY-20" source="hrMOJknZQr7iWLwGJMWY-28">
          <mxGeometry relative="1" as="geometry">
            <mxPoint x="345" y="470" as="targetPoint" />
          </mxGeometry>
        </mxCell>
        <mxCell id="hrMOJknZQr7iWLwGJMWY-71" style="edgeStyle=orthogonalEdgeStyle;rounded=0;orthogonalLoop=1;jettySize=auto;html=1;exitX=1;exitY=0.5;exitDx=0;exitDy=0;entryX=0.5;entryY=0;entryDx=0;entryDy=0;" edge="1" parent="hrMOJknZQr7iWLwGJMWY-20" source="hrMOJknZQr7iWLwGJMWY-28" target="hrMOJknZQr7iWLwGJMWY-46">
          <mxGeometry relative="1" as="geometry">
            <Array as="points">
              <mxPoint x="460" y="400" />
              <mxPoint x="460" y="760" />
              <mxPoint x="345" y="760" />
            </Array>
          </mxGeometry>
        </mxCell>
        <mxCell id="hrMOJknZQr7iWLwGJMWY-28" value="t &amp;gt; 0" style="rhombus;whiteSpace=wrap;html=1;" vertex="1" parent="hrMOJknZQr7iWLwGJMWY-20">
          <mxGeometry x="283" y="360" width="124" height="80" as="geometry" />
        </mxCell>
        <mxCell id="hrMOJknZQr7iWLwGJMWY-31" style="edgeStyle=orthogonalEdgeStyle;rounded=0;orthogonalLoop=1;jettySize=auto;html=1;exitX=0.5;exitY=1;exitDx=0;exitDy=0;" edge="1" parent="hrMOJknZQr7iWLwGJMWY-20" source="hrMOJknZQr7iWLwGJMWY-30">
          <mxGeometry relative="1" as="geometry">
            <mxPoint x="343" y="560" as="targetPoint" />
          </mxGeometry>
        </mxCell>
        <mxCell id="hrMOJknZQr7iWLwGJMWY-30" value="digits++" style="rounded=0;whiteSpace=wrap;html=1;" vertex="1" parent="hrMOJknZQr7iWLwGJMWY-20">
          <mxGeometry x="283" y="470" width="120" height="60" as="geometry" />
        </mxCell>
        <mxCell id="hrMOJknZQr7iWLwGJMWY-43" style="edgeStyle=orthogonalEdgeStyle;rounded=0;orthogonalLoop=1;jettySize=auto;html=1;exitX=0.5;exitY=1;exitDx=0;exitDy=0;" edge="1" parent="hrMOJknZQr7iWLwGJMWY-20" source="hrMOJknZQr7iWLwGJMWY-33">
          <mxGeometry relative="1" as="geometry">
            <mxPoint x="342.8333333333335" y="649.9999999999998" as="targetPoint" />
          </mxGeometry>
        </mxCell>
        <mxCell id="hrMOJknZQr7iWLwGJMWY-33" value="t = t / 10" style="rounded=0;whiteSpace=wrap;html=1;" vertex="1" parent="hrMOJknZQr7iWLwGJMWY-20">
          <mxGeometry x="283" y="560" width="120" height="60" as="geometry" />
        </mxCell>
        <mxCell id="hrMOJknZQr7iWLwGJMWY-34" value="true" style="text;html=1;align=center;verticalAlign=middle;resizable=0;points=[];autosize=1;strokeColor=none;fillColor=none;" vertex="1" parent="hrMOJknZQr7iWLwGJMWY-20">
          <mxGeometry x="314" y="440" width="40" height="30" as="geometry" />
        </mxCell>
        <mxCell id="hrMOJknZQr7iWLwGJMWY-36" style="edgeStyle=orthogonalEdgeStyle;rounded=0;orthogonalLoop=1;jettySize=auto;html=1;exitX=0.5;exitY=1;exitDx=0;exitDy=0;entryX=0.5;entryY=0;entryDx=0;entryDy=0;" edge="1" parent="hrMOJknZQr7iWLwGJMWY-20" source="hrMOJknZQr7iWLwGJMWY-35" target="hrMOJknZQr7iWLwGJMWY-28">
          <mxGeometry relative="1" as="geometry" />
        </mxCell>
        <mxCell id="hrMOJknZQr7iWLwGJMWY-35" value="" style="ellipse;whiteSpace=wrap;html=1;aspect=fixed;" vertex="1" parent="hrMOJknZQr7iWLwGJMWY-20">
          <mxGeometry x="340" y="330" width="10" height="10" as="geometry" />
        </mxCell>
        <mxCell id="hrMOJknZQr7iWLwGJMWY-70" style="edgeStyle=orthogonalEdgeStyle;rounded=0;orthogonalLoop=1;jettySize=auto;html=1;exitX=0.5;exitY=1;exitDx=0;exitDy=0;entryX=0;entryY=0.5;entryDx=0;entryDy=0;" edge="1" parent="hrMOJknZQr7iWLwGJMWY-20" source="hrMOJknZQr7iWLwGJMWY-44" target="hrMOJknZQr7iWLwGJMWY-35">
          <mxGeometry relative="1" as="geometry">
            <Array as="points">
              <mxPoint x="345" y="730" />
              <mxPoint x="220" y="730" />
              <mxPoint x="220" y="335" />
            </Array>
          </mxGeometry>
        </mxCell>
        <mxCell id="hrMOJknZQr7iWLwGJMWY-44" value="t = num&lt;div&gt;sum =&amp;nbsp; 0&lt;/div&gt;" style="rounded=0;whiteSpace=wrap;html=1;" vertex="1" parent="hrMOJknZQr7iWLwGJMWY-20">
          <mxGeometry x="285" y="650" width="120" height="60" as="geometry" />
        </mxCell>
        <mxCell id="hrMOJknZQr7iWLwGJMWY-47" style="edgeStyle=orthogonalEdgeStyle;rounded=0;orthogonalLoop=1;jettySize=auto;html=1;exitX=0.5;exitY=1;exitDx=0;exitDy=0;" edge="1" parent="hrMOJknZQr7iWLwGJMWY-20" source="hrMOJknZQr7iWLwGJMWY-46">
          <mxGeometry relative="1" as="geometry">
            <mxPoint x="345.3333333333335" y="930" as="targetPoint" />
          </mxGeometry>
        </mxCell>
        <mxCell id="hrMOJknZQr7iWLwGJMWY-60" style="edgeStyle=orthogonalEdgeStyle;rounded=0;orthogonalLoop=1;jettySize=auto;html=1;exitX=1;exitY=0.5;exitDx=0;exitDy=0;entryX=1;entryY=0.5;entryDx=0;entryDy=0;" edge="1" parent="hrMOJknZQr7iWLwGJMWY-20" source="hrMOJknZQr7iWLwGJMWY-46" target="hrMOJknZQr7iWLwGJMWY-58">
          <mxGeometry relative="1" as="geometry">
            <Array as="points">
              <mxPoint x="450" y="870" />
              <mxPoint x="450" y="1195" />
            </Array>
          </mxGeometry>
        </mxCell>
        <mxCell id="hrMOJknZQr7iWLwGJMWY-46" value="t &amp;gt; 0" style="rhombus;whiteSpace=wrap;html=1;" vertex="1" parent="hrMOJknZQr7iWLwGJMWY-20">
          <mxGeometry x="283" y="830" width="124" height="80" as="geometry" />
        </mxCell>
        <mxCell id="hrMOJknZQr7iWLwGJMWY-51" style="edgeStyle=orthogonalEdgeStyle;rounded=0;orthogonalLoop=1;jettySize=auto;html=1;exitX=0.5;exitY=1;exitDx=0;exitDy=0;" edge="1" parent="hrMOJknZQr7iWLwGJMWY-20" source="hrMOJknZQr7iWLwGJMWY-48">
          <mxGeometry relative="1" as="geometry">
            <mxPoint x="347" y="1010" as="targetPoint" />
          </mxGeometry>
        </mxCell>
        <mxCell id="hrMOJknZQr7iWLwGJMWY-48" value="digit = t % 10" style="rounded=0;whiteSpace=wrap;html=1;" vertex="1" parent="hrMOJknZQr7iWLwGJMWY-20">
          <mxGeometry x="287" y="930" width="120" height="60" as="geometry" />
        </mxCell>
        <mxCell id="hrMOJknZQr7iWLwGJMWY-53" style="edgeStyle=orthogonalEdgeStyle;rounded=0;orthogonalLoop=1;jettySize=auto;html=1;exitX=0.5;exitY=1;exitDx=0;exitDy=0;" edge="1" parent="hrMOJknZQr7iWLwGJMWY-20" source="hrMOJknZQr7iWLwGJMWY-52">
          <mxGeometry relative="1" as="geometry">
            <mxPoint x="347" y="1100" as="targetPoint" />
          </mxGeometry>
        </mxCell>
        <mxCell id="hrMOJknZQr7iWLwGJMWY-52" value="sum += pow(digits,digit)" style="rounded=0;whiteSpace=wrap;html=1;" vertex="1" parent="hrMOJknZQr7iWLwGJMWY-20">
          <mxGeometry x="287" y="1010" width="120" height="60" as="geometry" />
        </mxCell>
        <mxCell id="hrMOJknZQr7iWLwGJMWY-55" style="edgeStyle=orthogonalEdgeStyle;rounded=0;orthogonalLoop=1;jettySize=auto;html=1;exitX=0.5;exitY=1;exitDx=0;exitDy=0;" edge="1" parent="hrMOJknZQr7iWLwGJMWY-20" source="hrMOJknZQr7iWLwGJMWY-54">
          <mxGeometry relative="1" as="geometry">
            <mxPoint x="347" y="1190" as="targetPoint" />
          </mxGeometry>
        </mxCell>
        <mxCell id="hrMOJknZQr7iWLwGJMWY-54" value="t = t /10" style="rounded=0;whiteSpace=wrap;html=1;" vertex="1" parent="hrMOJknZQr7iWLwGJMWY-20">
          <mxGeometry x="287" y="1100" width="120" height="60" as="geometry" />
        </mxCell>
        <mxCell id="hrMOJknZQr7iWLwGJMWY-63" style="edgeStyle=orthogonalEdgeStyle;rounded=0;orthogonalLoop=1;jettySize=auto;html=1;exitX=0.5;exitY=1;exitDx=0;exitDy=0;" edge="1" parent="hrMOJknZQr7iWLwGJMWY-20" source="hrMOJknZQr7iWLwGJMWY-58">
          <mxGeometry relative="1" as="geometry">
            <mxPoint x="347" y="1220" as="targetPoint" />
          </mxGeometry>
        </mxCell>
        <mxCell id="hrMOJknZQr7iWLwGJMWY-58" value="" style="ellipse;whiteSpace=wrap;html=1;aspect=fixed;" vertex="1" parent="hrMOJknZQr7iWLwGJMWY-20">
          <mxGeometry x="342" y="1190" width="10" height="10" as="geometry" />
        </mxCell>
        <mxCell id="hrMOJknZQr7iWLwGJMWY-59" value="true" style="text;html=1;align=center;verticalAlign=middle;resizable=0;points=[];autosize=1;strokeColor=none;fillColor=none;" vertex="1" parent="hrMOJknZQr7iWLwGJMWY-20">
          <mxGeometry x="310" y="900" width="40" height="30" as="geometry" />
        </mxCell>
        <mxCell id="hrMOJknZQr7iWLwGJMWY-65" style="edgeStyle=orthogonalEdgeStyle;rounded=0;orthogonalLoop=1;jettySize=auto;html=1;exitX=0.5;exitY=1;exitDx=0;exitDy=0;" edge="1" parent="hrMOJknZQr7iWLwGJMWY-20" source="hrMOJknZQr7iWLwGJMWY-64">
          <mxGeometry relative="1" as="geometry">
            <mxPoint x="347" y="1340" as="targetPoint" />
          </mxGeometry>
        </mxCell>
        <mxCell id="hrMOJknZQr7iWLwGJMWY-75" style="edgeStyle=orthogonalEdgeStyle;rounded=0;orthogonalLoop=1;jettySize=auto;html=1;exitX=1;exitY=0.5;exitDx=0;exitDy=0;entryX=0.5;entryY=0;entryDx=0;entryDy=0;" edge="1" parent="hrMOJknZQr7iWLwGJMWY-20" source="hrMOJknZQr7iWLwGJMWY-64" target="hrMOJknZQr7iWLwGJMWY-74">
          <mxGeometry relative="1" as="geometry" />
        </mxCell>
        <mxCell id="hrMOJknZQr7iWLwGJMWY-64" value="sum == temp" style="rhombus;whiteSpace=wrap;html=1;" vertex="1" parent="hrMOJknZQr7iWLwGJMWY-20">
          <mxGeometry x="285" y="1220" width="124" height="80" as="geometry" />
        </mxCell>
        <mxCell id="hrMOJknZQr7iWLwGJMWY-67" value="end" style="ellipse;whiteSpace=wrap;html=1;" vertex="1" parent="hrMOJknZQr7iWLwGJMWY-20">
          <mxGeometry x="289" y="1340" width="120" height="80" as="geometry" />
        </mxCell>
        <mxCell id="hrMOJknZQr7iWLwGJMWY-68" value="true" style="text;html=1;align=center;verticalAlign=middle;resizable=0;points=[];autosize=1;strokeColor=none;fillColor=none;" vertex="1" parent="hrMOJknZQr7iWLwGJMWY-20">
          <mxGeometry x="310" y="1300" width="40" height="30" as="geometry" />
        </mxCell>
        <mxCell id="hrMOJknZQr7iWLwGJMWY-61" value="false" style="text;html=1;align=center;verticalAlign=middle;resizable=0;points=[];autosize=1;strokeColor=none;fillColor=none;" vertex="1" parent="hrMOJknZQr7iWLwGJMWY-20">
          <mxGeometry x="395" y="838" width="50" height="30" as="geometry" />
        </mxCell>
        <mxCell id="hrMOJknZQr7iWLwGJMWY-74" value="return" style="rounded=0;whiteSpace=wrap;html=1;" vertex="1" parent="hrMOJknZQr7iWLwGJMWY-20">
          <mxGeometry x="430" y="1289.996666666667" width="120" height="60" as="geometry" />
        </mxCell>
        <mxCell id="hrMOJknZQr7iWLwGJMWY-72" value="false" style="text;html=1;align=center;verticalAlign=middle;resizable=0;points=[];autosize=1;strokeColor=none;fillColor=none;" vertex="1" parent="1">
          <mxGeometry x="475" y="1088" width="50" height="30" as="geometry" />
        </mxCell>
      </root>
    </mxGraphModel>
  </diagram>
</mxfile>
